<svg width="69" height="22" viewBox="0 0 69 22" fill="none" xmlns="http://www.w3.org/2000/svg">
<path d="M7.32 14.28C7.32 15.784 7.016 17.08 6.408 18.168C5.816 19.272 4.976 20.12 3.888 20.712C2.8 21.304 1.544 21.624 0.12 21.672V18.288C2.584 18.16 3.816 16.8 3.816 14.208V0.335999H7.32V14.28ZM16.5694 15.432C17.2414 15.432 17.9374 15.2 18.6574 14.736L20.1454 17.232C19.5694 17.552 18.9614 17.808 18.3214 18C17.6814 18.192 17.0734 18.288 16.4974 18.288C15.2494 18.288 14.1694 18.056 13.2574 17.592C12.3614 17.112 11.6814 16.448 11.2174 15.6C10.7534 14.736 10.5214 13.752 10.5214 12.648C10.5214 11.624 10.7854 10.68 11.3134 9.816C11.8574 8.952 12.5934 8.272 13.5214 7.776C14.4494 7.264 15.4654 7.008 16.5694 7.008C18.0734 7.008 19.3054 7.448 20.2654 8.328C21.2414 9.208 21.8734 10.464 22.1614 12.096L14.4814 14.544C14.9934 15.136 15.6894 15.432 16.5694 15.432ZM16.3054 9.624C15.5534 9.624 14.9534 9.88 14.5054 10.392C14.0574 10.904 13.8334 11.592 13.8334 12.456V12.672L18.4414 11.112C18.1054 10.12 17.3934 9.624 16.3054 9.624ZM28.011 18.216C27.147 18.216 26.339 18.064 25.587 17.76C24.835 17.456 24.211 17.032 23.715 16.488L25.107 14.64C26.035 15.504 26.907 15.936 27.723 15.936C28.155 15.936 28.499 15.872 28.755 15.744C29.027 15.6 29.163 15.392 29.163 15.12C29.163 14.8 29.011 14.56 28.707 14.4C28.403 14.224 28.059 14.08 27.675 13.968C27.307 13.856 27.059 13.784 26.931 13.752C26.019 13.464 25.339 13.04 24.891 12.48C24.443 11.904 24.219 11.248 24.219 10.512C24.219 9.952 24.363 9.408 24.651 8.88C24.955 8.336 25.419 7.896 26.043 7.56C26.667 7.208 27.443 7.032 28.371 7.032C29.235 7.032 29.971 7.12 30.579 7.296C31.187 7.472 31.771 7.76 32.331 8.16L31.059 10.128C30.739 9.872 30.379 9.664 29.979 9.504C29.595 9.328 29.243 9.24 28.923 9.24C28.539 9.24 28.227 9.32 27.987 9.48C27.747 9.64 27.627 9.832 27.627 10.056C27.611 10.392 27.747 10.648 28.035 10.824C28.339 10.984 28.803 11.152 29.427 11.328C29.523 11.36 29.619 11.392 29.715 11.424C29.827 11.456 29.939 11.488 30.051 11.52C31.699 12.064 32.523 13.056 32.523 14.496C32.523 15.168 32.355 15.784 32.019 16.344C31.683 16.904 31.171 17.36 30.483 17.712C29.811 18.048 28.987 18.216 28.011 18.216ZM38.7454 18.216C37.8814 18.216 37.0734 18.064 36.3214 17.76C35.5694 17.456 34.9454 17.032 34.4494 16.488L35.8414 14.64C36.7694 15.504 37.6414 15.936 38.4574 15.936C38.8894 15.936 39.2334 15.872 39.4894 15.744C39.7614 15.6 39.8974 15.392 39.8974 15.12C39.8974 14.8 39.7454 14.56 39.4414 14.4C39.1374 14.224 38.7934 14.08 38.4094 13.968C38.0414 13.856 37.7934 13.784 37.6654 13.752C36.7534 13.464 36.0734 13.04 35.6254 12.48C35.1774 11.904 34.9534 11.248 34.9534 10.512C34.9534 9.952 35.0974 9.408 35.3854 8.88C35.6894 8.336 36.1534 7.896 36.7774 7.56C37.4014 7.208 38.1774 7.032 39.1054 7.032C39.9694 7.032 40.7054 7.12 41.3134 7.296C41.9214 7.472 42.5054 7.76 43.0654 8.16L41.7934 10.128C41.4734 9.872 41.1134 9.664 40.7134 9.504C40.3294 9.328 39.9774 9.24 39.6574 9.24C39.2734 9.24 38.9614 9.32 38.7214 9.48C38.4814 9.64 38.3614 9.832 38.3614 10.056C38.3454 10.392 38.4814 10.648 38.7694 10.824C39.0734 10.984 39.5374 11.152 40.1614 11.328C40.2574 11.36 40.3534 11.392 40.4494 11.424C40.5614 11.456 40.6734 11.488 40.7854 11.52C42.4334 12.064 43.2574 13.056 43.2574 14.496C43.2574 15.168 43.0894 15.784 42.7534 16.344C42.4174 16.904 41.9054 17.36 41.2174 17.712C40.5454 18.048 39.7214 18.216 38.7454 18.216ZM49.4318 7.512V18H46.0718V7.512H49.4318ZM45.9998 3.792C45.9998 3.312 46.1838 2.912 46.5518 2.592C46.9358 2.256 47.3678 2.088 47.8478 2.088C48.3118 2.088 48.7278 2.256 49.0958 2.592C49.4638 2.912 49.6478 3.312 49.6478 3.792C49.6478 4.272 49.4638 4.672 49.0958 4.992C48.7278 5.312 48.3118 5.472 47.8478 5.472C47.3678 5.472 46.9358 5.312 46.5518 4.992C46.1838 4.672 45.9998 4.272 45.9998 3.792ZM58.1241 15.432C58.7961 15.432 59.4921 15.2 60.2121 14.736L61.7001 17.232C61.1241 17.552 60.5161 17.808 59.8761 18C59.2361 18.192 58.6281 18.288 58.0521 18.288C56.8041 18.288 55.7241 18.056 54.8121 17.592C53.9161 17.112 53.2361 16.448 52.7721 15.6C52.3081 14.736 52.0761 13.752 52.0761 12.648C52.0761 11.624 52.3401 10.68 52.8681 9.816C53.4121 8.952 54.1481 8.272 55.0761 7.776C56.0041 7.264 57.0201 7.008 58.1241 7.008C59.6281 7.008 60.8601 7.448 61.8201 8.328C62.7961 9.208 63.4281 10.464 63.7161 12.096L56.0361 14.544C56.5481 15.136 57.2441 15.432 58.1241 15.432ZM57.8601 9.624C57.1081 9.624 56.5081 9.88 56.0601 10.392C55.6121 10.904 55.3881 11.592 55.3881 12.456V12.672L59.9961 11.112C59.6601 10.12 58.9481 9.624 57.8601 9.624ZM64.7897 16.272C64.7897 15.792 64.9657 15.384 65.3177 15.048C65.6697 14.696 66.0697 14.52 66.5177 14.52C66.9337 14.52 67.3177 14.696 67.6697 15.048C68.0217 15.384 68.1977 15.792 68.1977 16.272C68.1977 16.768 68.0217 17.184 67.6697 17.52C67.3337 17.84 66.9497 18 66.5177 18C66.0697 18 65.6697 17.84 65.3177 17.52C64.9657 17.2 64.7897 16.784 64.7897 16.272Z" fill="#EEEEEE"/>
</svg>
